<mxfile host="app.diagrams.net" modified="2021-12-02T14:07:28.111Z" agent="5.0 (Macintosh; Intel Mac OS X 10_15_7) AppleWebKit/605.1.15 (KHTML, like Gecko) Version/15.1 Safari/605.1.15" etag="9NQLeq9WVd1UrFBELFM0" version="15.8.8" type="github" pages="2">
  <diagram id="YRmyA7aFUxAuU_GTxPZr" name="Page-1">
    <mxGraphModel dx="788" dy="517" grid="0" gridSize="10" guides="1" tooltips="1" connect="1" arrows="1" fold="1" page="1" pageScale="1" pageWidth="1169" pageHeight="827" math="0" shadow="0">
      <root>
        <mxCell id="0" />
        <mxCell id="1" parent="0" />
        <mxCell id="T4ImN_tIdXh9xlsoKslD-8" style="edgeStyle=orthogonalEdgeStyle;rounded=0;orthogonalLoop=1;jettySize=auto;html=1;exitX=1;exitY=0.5;exitDx=0;exitDy=0;entryX=0.546;entryY=0;entryDx=0;entryDy=0;entryPerimeter=0;endArrow=none;endFill=0;" edge="1" parent="1" source="T4ImN_tIdXh9xlsoKslD-1" target="T4ImN_tIdXh9xlsoKslD-1">
          <mxGeometry relative="1" as="geometry">
            <mxPoint x="644" y="212" as="targetPoint" />
            <Array as="points">
              <mxPoint x="637" y="353" />
              <mxPoint x="637" y="260" />
              <mxPoint x="501" y="260" />
            </Array>
          </mxGeometry>
        </mxCell>
        <mxCell id="T4ImN_tIdXh9xlsoKslD-9" value="&amp;lt; hat als Nachfolger" style="edgeLabel;html=1;align=center;verticalAlign=middle;resizable=0;points=[];" vertex="1" connectable="0" parent="T4ImN_tIdXh9xlsoKslD-8">
          <mxGeometry x="0.1261" y="2" relative="1" as="geometry">
            <mxPoint x="1" y="-15" as="offset" />
          </mxGeometry>
        </mxCell>
        <mxCell id="T4ImN_tIdXh9xlsoKslD-1" value="&lt;p style=&quot;margin: 0px ; margin-top: 4px ; text-align: center&quot;&gt;&lt;b&gt;Lied&lt;/b&gt;&lt;/p&gt;&lt;hr size=&quot;1&quot;&gt;&lt;p style=&quot;margin: 0px ; margin-left: 4px&quot;&gt;- naechstes: Lied&lt;/p&gt;&lt;p style=&quot;margin: 0px ; margin-left: 4px&quot;&gt;- dauer: int&lt;/p&gt;&lt;p style=&quot;margin: 0px ; margin-left: 4px&quot;&gt;- titel: String&lt;/p&gt;&lt;hr size=&quot;1&quot;&gt;&lt;p style=&quot;margin: 0px 0px 0px 4px&quot;&gt;+ hintenEinfuegen(Lied): void&lt;/p&gt;&lt;p style=&quot;margin: 0px 0px 0px 4px&quot;&gt;+ abspielen(): void&lt;/p&gt;&lt;p style=&quot;margin: 0px 0px 0px 4px&quot;&gt;+ anzahlGeben(): int&lt;br&gt;&lt;/p&gt;" style="verticalAlign=top;align=left;overflow=fill;fontSize=12;fontFamily=Helvetica;html=1;" vertex="1" parent="1">
          <mxGeometry x="406" y="287" width="174" height="131" as="geometry" />
        </mxCell>
        <mxCell id="T4ImN_tIdXh9xlsoKslD-2" value="" style="edgeStyle=orthogonalEdgeStyle;rounded=0;orthogonalLoop=1;jettySize=auto;html=1;endArrow=none;endFill=0;" edge="1" parent="1" source="T4ImN_tIdXh9xlsoKslD-4" target="T4ImN_tIdXh9xlsoKslD-1">
          <mxGeometry relative="1" as="geometry" />
        </mxCell>
        <mxCell id="T4ImN_tIdXh9xlsoKslD-3" value="hat als Anfang &amp;gt;" style="edgeLabel;html=1;align=center;verticalAlign=middle;resizable=0;points=[];" vertex="1" connectable="0" parent="T4ImN_tIdXh9xlsoKslD-2">
          <mxGeometry x="-0.2525" relative="1" as="geometry">
            <mxPoint x="16" y="-9" as="offset" />
          </mxGeometry>
        </mxCell>
        <mxCell id="T4ImN_tIdXh9xlsoKslD-4" value="&lt;p style=&quot;margin: 0px ; margin-top: 4px ; text-align: center&quot;&gt;&lt;b&gt;Playlist&lt;/b&gt;&lt;/p&gt;&lt;hr size=&quot;1&quot;&gt;&lt;p style=&quot;margin: 0px ; margin-left: 4px&quot;&gt;- erstes: Lied&lt;/p&gt;&lt;hr size=&quot;1&quot;&gt;&lt;p style=&quot;margin: 0px 0px 0px 4px&quot;&gt;+ hintenEinfuegen(Lied): void&lt;/p&gt;&lt;p style=&quot;margin: 0px 0px 0px 4px&quot;&gt;+ vorneEntfernen(): Lied&lt;/p&gt;&lt;p style=&quot;margin: 0px 0px 0px 4px&quot;&gt;+ abspielen(): void&lt;/p&gt;&lt;p style=&quot;margin: 0px 0px 0px 4px&quot;&gt;+ anzahlGeben(): int&lt;/p&gt;&lt;p style=&quot;margin: 0px 0px 0px 4px&quot;&gt;&lt;br&gt;&lt;/p&gt;" style="verticalAlign=top;align=left;overflow=fill;fontSize=12;fontFamily=Helvetica;html=1;" vertex="1" parent="1">
          <mxGeometry x="114" y="286" width="164" height="132" as="geometry" />
        </mxCell>
        <mxCell id="T4ImN_tIdXh9xlsoKslD-5" value="1" style="text;html=1;align=center;verticalAlign=middle;resizable=0;points=[];autosize=1;strokeColor=none;fillColor=none;" vertex="1" parent="1">
          <mxGeometry x="281" y="355" width="17" height="18" as="geometry" />
        </mxCell>
        <mxCell id="T4ImN_tIdXh9xlsoKslD-6" value="1" style="text;html=1;align=center;verticalAlign=middle;resizable=0;points=[];autosize=1;strokeColor=none;fillColor=none;" vertex="1" parent="1">
          <mxGeometry x="387" y="355" width="17" height="18" as="geometry" />
        </mxCell>
        <mxCell id="T4ImN_tIdXh9xlsoKslD-10" value="0..1" style="text;html=1;align=center;verticalAlign=middle;resizable=0;points=[];autosize=1;strokeColor=none;fillColor=none;" vertex="1" parent="1">
          <mxGeometry x="473" y="268" width="30" height="18" as="geometry" />
        </mxCell>
        <mxCell id="T4ImN_tIdXh9xlsoKslD-12" value="1" style="text;html=1;align=center;verticalAlign=middle;resizable=0;points=[];autosize=1;strokeColor=none;fillColor=none;" vertex="1" parent="1">
          <mxGeometry x="580" y="355" width="17" height="18" as="geometry" />
        </mxCell>
      </root>
    </mxGraphModel>
  </diagram>
  <diagram id="oTnlTQkIb9-b1VzGcmZ3" name="Page-2">
    <mxGraphModel dx="946" dy="620" grid="0" gridSize="10" guides="1" tooltips="1" connect="1" arrows="1" fold="1" page="1" pageScale="1" pageWidth="1169" pageHeight="827" math="0" shadow="0">
      <root>
        <mxCell id="tSw24ebRo1QTVbGm7s3O-0" />
        <mxCell id="tSw24ebRo1QTVbGm7s3O-1" parent="tSw24ebRo1QTVbGm7s3O-0" />
        <mxCell id="tSw24ebRo1QTVbGm7s3O-2" value="&lt;b&gt;Abschluss&lt;/b&gt;" style="html=1;" vertex="1" parent="tSw24ebRo1QTVbGm7s3O-1">
          <mxGeometry x="338" y="309" width="110" height="50" as="geometry" />
        </mxCell>
        <mxCell id="tSw24ebRo1QTVbGm7s3O-3" value="&lt;b&gt;Knoten&lt;/b&gt;" style="html=1;" vertex="1" parent="tSw24ebRo1QTVbGm7s3O-1">
          <mxGeometry x="486" y="309" width="110" height="50" as="geometry" />
        </mxCell>
        <mxCell id="tSw24ebRo1QTVbGm7s3O-4" value="«abstract»&lt;br&gt;&lt;b&gt;Listenelement&lt;/b&gt;" style="html=1;" vertex="1" parent="tSw24ebRo1QTVbGm7s3O-1">
          <mxGeometry x="408" y="211" width="110" height="50" as="geometry" />
        </mxCell>
      </root>
    </mxGraphModel>
  </diagram>
</mxfile>
